<svg width="113" height="98" viewBox="0 0 113 98" fill="none" xmlns="http://www.w3.org/2000/svg">
<path d="M95.1289 50.8202C100.821 48.6902 106.778 47.2152 112.802 46.1882V44.1502C106.713 45.3392 100.746 47.0162 95.0549 49.3282C94.8809 49.3992 94.7059 49.4772 94.5309 49.5502C91.5459 43.3302 87.5239 37.5442 83.1039 32.3432C74.4629 22.1992 63.5829 13.7372 51.5369 7.94316C39.4429 2.08916 25.9579 -1.01583 12.5049 0.299167C9.18288 0.619167 5.82488 1.25817 2.60788 2.07517C1.82688 2.30917 1.04488 3.02717 0.499877 3.55717C0.309877 3.80517 -0.425106 4.58217 0.342894 4.45517C13.1639 1.12917 26.6679 2.18917 39.1099 6.41417C51.5049 10.5792 62.8499 17.8012 72.3929 26.6482C79.9219 33.6022 86.5789 41.8252 91.1169 51.0642C81.8879 55.4432 72.8989 62.0632 69.0189 71.6622C66.6959 77.3742 66.3179 84.4402 69.1239 90.0392C71.7069 95.2352 77.3219 98.4092 83.1399 96.9742C90.7209 95.2032 95.8859 87.7152 98.0359 80.6912C99.7799 74.8592 100.084 68.9162 98.9919 62.9212C98.2269 58.7452 96.8839 54.7022 95.1289 50.8202ZM91.4099 90.5952C89.7479 92.8822 87.6399 94.3642 84.8369 94.8512C82.0939 95.2912 79.3069 94.7032 76.9479 93.1942C71.2289 89.5242 69.6449 82.1802 70.4219 75.8602C71.7449 65.2402 79.5089 58.1042 88.5279 53.6432C89.5599 53.1392 90.6089 52.6692 91.6639 52.2142C92.1729 53.3012 92.6599 54.3992 93.1069 55.5132C94.9939 60.1992 96.3609 65.2022 96.6389 70.2962C96.9849 77.1772 95.4469 84.9712 91.4099 90.5952Z" fill="black"/>
</svg>
