<svg width="10" height="13" viewBox="0 0 10 13" fill="none" xmlns="http://www.w3.org/2000/svg">
<path d="M3.40732 5.33043C3.51232 5.21343 3.61933 5.10142 3.73833 4.99842C3.79533 4.94842 3.85532 4.90142 3.91632 4.85542C3.71332 4.98742 3.68733 5.00642 3.83933 4.91142C4.10233 4.77842 4.35232 4.66242 4.63832 4.58942C4.50532 4.62042 4.37133 4.65043 4.23833 4.68143C4.62333 4.59843 5.00032 4.59043 5.38832 4.65943C5.25332 4.63543 5.11933 4.61143 4.98433 4.58743C5.17633 4.62943 5.36232 4.68543 5.54332 4.76443C5.56932 4.77543 5.78532 4.85443 5.78732 4.88643C5.59632 4.76643 5.55232 4.74143 5.65532 4.81343C5.69932 4.84343 5.74233 4.87542 5.78333 4.90842C5.85133 4.96242 5.91733 5.02043 5.98033 5.07943C6.14733 5.23643 6.01933 5.25443 5.92333 4.99643C5.97833 5.14243 6.16332 5.30342 6.25032 5.43942C6.28132 5.48642 6.31032 5.53542 6.33832 5.58442C6.41632 5.71842 6.37832 5.64843 6.22632 5.37443C6.24132 5.46043 6.31433 5.55742 6.34833 5.63742C6.38733 5.72742 6.41833 5.82043 6.45633 5.91043C6.62433 6.30643 6.33733 5.39442 6.43233 5.81842C6.47633 6.01542 6.51732 6.21143 6.55432 6.40943C6.63632 6.85243 6.53433 5.83142 6.53533 6.28242C6.53533 6.38442 6.54332 6.48543 6.54332 6.58743C6.54332 6.80443 6.43633 6.96742 6.56433 6.40042C6.54233 6.49742 6.54333 6.60442 6.52933 6.70342C6.51533 6.79442 6.47032 6.90942 6.47632 7.00142C6.56632 6.66242 6.58832 6.57442 6.54332 6.73842C6.52732 6.79542 6.51033 6.85243 6.49233 6.90943C6.46233 7.00343 6.42933 7.09542 6.39333 7.18642C6.27533 7.48842 6.37233 7.21543 6.45433 7.08643C6.34333 7.26143 6.25733 7.45142 6.13933 7.62342C6.09233 7.69142 6.00532 7.76942 5.97632 7.84642C6.15032 7.63542 6.19033 7.58242 6.09833 7.68642C6.06233 7.72642 6.02633 7.76542 5.98833 7.80442C5.86533 7.93042 5.73033 8.03842 5.59633 8.15142C5.37333 8.33942 5.83332 8.03342 5.65732 8.10942C5.58232 8.14142 5.51233 8.19242 5.43833 8.22842C5.26233 8.31342 5.07933 8.37643 4.88933 8.42443C5.02233 8.39343 5.15632 8.36342 5.28932 8.33242C4.95932 8.40142 4.63733 8.40543 4.30533 8.35043C4.44033 8.37443 4.57432 8.39842 4.70932 8.42242C4.41632 8.36142 4.17032 8.23343 3.89432 8.12843C3.71032 8.05843 4.14633 8.31243 3.99033 8.18743C3.93433 8.14343 3.87233 8.10542 3.81633 8.06142C3.68533 7.96042 3.56532 7.84743 3.44632 7.73243C3.26432 7.55743 3.51033 7.76542 3.53533 7.83242C3.51333 7.77242 3.43332 7.70342 3.39432 7.65042C3.34832 7.58742 3.30433 7.52343 3.26233 7.45843C3.23633 7.41843 3.03533 7.07342 3.20833 7.38042C3.36433 7.65842 3.22832 7.40342 3.20032 7.33942C3.16732 7.26442 3.13633 7.18842 3.10733 7.11242C3.07933 7.03742 2.98932 6.75342 3.09732 7.10642C3.21432 7.48942 3.10433 7.10442 3.09033 7.04042C3.06733 6.93542 3.07333 6.65242 3.01033 6.57442C3.04133 6.61242 3.05533 7.15643 3.04633 6.83043C3.04433 6.75043 3.03832 6.67142 3.03732 6.59142C3.03532 6.49142 3.04132 6.39243 3.04132 6.29243C3.04032 6.01143 2.98333 6.82643 3.02733 6.54843C3.05233 6.39143 3.06533 6.23443 3.09433 6.07743C3.12533 5.91342 3.23932 5.64543 3.04532 6.22943C3.06932 6.15543 3.08732 6.07942 3.11032 6.00542C3.15632 5.85842 3.21333 5.71643 3.26833 5.57343C3.36833 5.31443 3.23132 5.69042 3.18532 5.73842C3.24332 5.67742 3.27632 5.56742 3.31932 5.49542C3.39332 5.37042 3.72033 4.93942 3.36533 5.37642C4.06533 4.51342 4.31232 3.25642 3.83032 2.21042C3.64332 1.80442 3.35933 1.31343 2.90033 1.17343C2.51333 1.05543 2.01733 1.09343 1.74033 1.43443C0.910328 2.45743 0.412328 3.57142 0.156328 4.86642C-0.0796718 6.05842 -0.0506668 7.38842 0.258333 8.56442C0.819333 10.6974 2.42133 12.9924 4.86333 12.9994C7.00633 13.0054 8.63932 10.9434 9.19432 9.05742C9.89032 6.68942 9.64632 3.69442 8.01532 1.72842C7.19932 0.744424 6.16833 0.053424 4.85633 0.00242403C3.70333 -0.042576 2.53933 0.543426 1.78133 1.38843C1.04633 2.20843 0.850332 3.54342 1.31633 4.55442C1.50333 4.96042 1.78732 5.45142 2.24632 5.59142C2.64732 5.71242 3.11132 5.66043 3.40732 5.33043Z" fill="black"/>
</svg>
