<svg width="341" height="152" viewBox="0 0 341 152" fill="none" xmlns="http://www.w3.org/2000/svg">
<path d="M336.805 149.989C336.676 150.352 336.202 150.438 335.953 150.145L331.073 144.411C330.823 144.118 330.985 143.665 331.363 143.595L338.769 142.236C339.148 142.166 339.46 142.533 339.331 142.895L336.805 149.989Z" fill="black"/>
<path fill-rule="evenodd" clip-rule="evenodd" d="M132.127 0.992401C132.131 0.440133 132.582 -0.00416745 133.134 2.94906e-05C135.161 0.0154307 137.186 0.0778546 139.208 0.18953C139.76 0.219984 140.182 0.691706 140.152 1.24315C140.121 1.7946 139.65 2.21694 139.098 2.18649C137.108 2.0766 135.115 2.01514 133.119 1.99997C132.567 1.99577 132.123 1.54467 132.127 0.992401ZM128.099 1.05398C128.12 1.60588 127.689 2.0701 127.138 2.09085C125.146 2.16573 123.154 2.28447 121.163 2.44496C120.613 2.48933 120.131 2.07904 120.086 1.52854C120.042 0.978038 120.452 0.495798 121.003 0.451424C123.021 0.288698 125.042 0.168245 127.062 0.0922645C127.614 0.071511 128.078 0.502086 128.099 1.05398ZM144.167 1.56437C144.225 1.01513 144.717 0.616837 145.266 0.674756C147.28 0.887166 149.29 1.15104 151.294 1.46861C151.839 1.55507 152.211 2.06736 152.125 2.61283C152.038 3.15831 151.526 3.53041 150.98 3.44395C149.012 3.13194 147.037 2.87257 145.057 2.66373C144.507 2.60581 144.109 2.11361 144.167 1.56437ZM116.077 1.93484C116.144 2.48309 115.753 2.98158 115.205 3.04825C113.225 3.28912 111.247 3.56934 109.272 3.88684C108.727 3.97454 108.214 3.60359 108.126 3.05831C108.039 2.51303 108.409 1.99991 108.955 1.91222C110.954 1.59076 112.957 1.30692 114.964 1.06288C115.512 0.996207 116.011 1.3866 116.077 1.93484ZM156.088 3.3507C156.204 2.81071 156.735 2.46693 157.275 2.58283C159.253 3.0073 161.223 3.487 163.183 4.02412C163.716 4.17006 164.029 4.72016 163.883 5.25282C163.738 5.78547 163.187 6.09897 162.655 5.95304C160.731 5.42595 158.797 4.95506 156.856 4.53829C156.316 4.42239 155.972 3.89069 156.088 3.3507ZM104.161 3.77123C104.269 4.31295 103.917 4.83923 103.375 4.9467C101.416 5.33531 99.4627 5.75888 97.5162 6.21533C96.9785 6.34142 96.4404 6.00775 96.3143 5.47005C96.1882 4.93236 96.5219 4.39425 97.0596 4.26815C99.0279 3.80659 101.004 3.37813 102.986 2.98494C103.527 2.87747 104.054 3.2295 104.161 3.77123ZM92.4064 6.45516C92.55 6.98844 92.2342 7.53719 91.7009 7.68083C89.7698 8.20095 87.8473 8.75187 85.9347 9.3315C85.4062 9.49169 84.8479 9.19307 84.6877 8.66453C84.5275 8.13598 84.8261 7.57766 85.3547 7.41747C87.2866 6.83197 89.2291 6.27531 91.1807 5.74965C91.714 5.60601 92.2628 5.92188 92.4064 6.45516ZM167.732 6.42632C167.908 5.90291 168.476 5.62148 168.999 5.79772C170.913 6.44214 172.816 7.14448 174.707 7.90683C175.219 8.11333 175.467 8.69597 175.261 9.2082C175.054 9.72043 174.472 9.96827 173.959 9.76177C172.105 9.01414 170.238 8.32528 168.361 7.69315C167.837 7.51691 167.556 6.94973 167.732 6.42632ZM80.8499 9.89091C81.0257 10.4145 80.7438 10.9814 80.2203 11.1572C78.3204 11.7952 76.4322 12.4601 74.5571 13.1497C74.0388 13.3404 73.464 13.0747 73.2734 12.5564C73.0828 12.0381 73.3484 11.4633 73.8668 11.2727C75.7592 10.5767 77.6653 9.90548 79.5836 9.26129C80.1071 9.08547 80.6741 9.36736 80.8499 9.89091ZM178.961 10.8282C179.197 10.3291 179.793 10.116 180.292 10.3524C182.11 11.2132 183.915 12.1329 185.706 13.1133C186.19 13.3786 186.368 13.9863 186.102 14.4707C185.837 14.9551 185.229 15.1328 184.745 14.8675C182.989 13.906 181.219 13.0041 179.437 12.16C178.937 11.9236 178.724 11.3274 178.961 10.8282ZM69.5096 13.9999C69.7143 14.5128 69.4644 15.0946 68.9515 15.2993C67.0881 16.043 65.2397 16.8097 63.4079 17.5971C62.9006 17.8153 62.3124 17.5808 62.0943 17.0734C61.8762 16.566 62.1106 15.9779 62.618 15.7597C64.4656 14.9655 66.3301 14.1921 68.2101 13.4418C68.7231 13.2371 69.3048 13.4869 69.5096 13.9999ZM189.568 16.5024C189.861 16.0343 190.478 15.8923 190.946 16.1853C192.651 17.2523 194.341 18.3781 196.015 19.5642C196.466 19.8835 196.572 20.5076 196.253 20.9583C195.934 21.4089 195.309 21.5153 194.859 21.196C193.216 20.0319 191.558 18.9274 189.885 17.8806C189.417 17.5876 189.275 16.9706 189.568 16.5024ZM58.4173 18.7103C58.6482 19.2119 58.4288 19.8059 57.9271 20.0368C56.0979 20.8789 54.2875 21.7403 52.4977 22.6187C52.0019 22.862 51.4027 22.6573 51.1594 22.1615C50.9161 21.6657 51.1208 21.0666 51.6166 20.8232C53.421 19.9377 55.2462 19.0692 57.0907 18.2201C57.5924 17.9891 58.1863 18.2086 58.4173 18.7103ZM199.482 23.3858C199.826 22.9536 200.455 22.8822 200.887 23.2261C202.448 24.4684 203.993 25.7667 205.521 27.1226C205.934 27.4891 205.972 28.1212 205.605 28.5343C205.239 28.9474 204.607 28.9851 204.194 28.6185C202.692 27.2862 201.175 26.0108 199.642 24.7909C199.21 24.447 199.138 23.8179 199.482 23.3858ZM47.5596 23.9828C47.8149 24.4726 47.6248 25.0765 47.135 25.3318C45.3471 26.2636 43.5825 27.2107 41.843 28.1707C41.3595 28.4376 40.7512 28.2619 40.4843 27.7783C40.2175 27.2948 40.3931 26.6865 40.8767 26.4197C42.6299 25.4521 44.4085 24.4975 46.2107 23.5582C46.7004 23.303 47.3044 23.4931 47.5596 23.9828ZM36.9856 29.7634C37.2638 30.2405 37.1025 30.8528 36.6254 31.131C34.8811 32.148 33.1655 33.1761 31.4807 34.2124C31.0103 34.5018 30.3943 34.355 30.105 33.8846C29.8156 33.4141 29.9624 32.7982 30.4328 32.5089C32.1309 31.4644 33.86 30.4282 35.618 29.4032C36.0951 29.125 36.7074 29.2863 36.9856 29.7634ZM208.553 31.2904C208.94 30.8968 209.573 30.8917 209.967 31.2791C211.396 32.685 212.808 34.1447 214.203 35.6596C214.577 36.0659 214.551 36.6986 214.144 37.0726C213.738 37.4467 213.106 37.4206 212.731 37.0143C211.359 35.5233 209.969 34.0872 208.564 32.7046C208.171 32.3172 208.166 31.6841 208.553 31.2904ZM26.6882 36.0427C26.9887 36.5061 26.8567 37.1253 26.3933 37.4258C24.6877 38.532 23.0185 39.6441 21.388 40.7591C20.9321 41.0709 20.3098 40.954 19.9981 40.4981C19.6863 40.0422 19.8032 39.4199 20.2591 39.1082C21.9031 37.984 23.5858 36.8628 25.3051 35.7478C25.7684 35.4473 26.3877 35.5793 26.6882 36.0427ZM216.78 40.0731C217.203 39.7182 217.834 39.7736 218.188 40.1968C219.477 41.7337 220.75 43.3212 222.005 44.9603C222.341 45.3988 222.257 46.0265 221.819 46.3623C221.381 46.6981 220.753 46.6148 220.417 46.1763C219.18 44.5603 217.926 42.9959 216.656 41.4819C216.301 41.0587 216.356 40.4279 216.78 40.0731ZM16.6959 42.8173C17.0191 43.2652 16.918 43.8902 16.4702 44.2134C14.8144 45.4083 13.2056 46.6025 11.6466 47.7922C11.2075 48.1272 10.58 48.0429 10.245 47.6039C9.90993 47.1648 9.99425 46.5373 10.4333 46.2023C12.0066 45.0016 13.6297 43.7968 15.2998 42.5916C15.7477 42.2684 16.3727 42.3695 16.6959 42.8173ZM224.185 49.59C224.637 49.2726 225.261 49.3817 225.578 49.8336C225.979 50.4042 226.378 50.9803 226.774 51.5622C227.617 51.439 228.491 51.32 229.394 51.2076C229.942 51.1394 230.442 51.5284 230.51 52.0765C230.578 52.6245 230.189 53.1241 229.641 53.1923C229.03 53.2683 228.433 53.3475 227.85 53.4289C228.148 54.0525 228.439 54.6744 228.722 55.2945C228.952 55.7969 228.73 56.3901 228.228 56.6196C227.726 56.849 227.132 56.6278 226.903 56.1254C226.542 55.3352 226.168 54.5417 225.782 53.7452C225.15 53.8589 224.514 53.9941 223.874 54.1501C223.337 54.2809 222.796 53.9519 222.665 53.4153C222.535 52.8788 222.864 52.3377 223.4 52.207C223.802 52.1089 224.204 52.0185 224.605 51.9358C224.384 51.6164 224.163 51.2988 223.941 50.983C223.624 50.5311 223.733 49.9074 224.185 49.59ZM7.07428 50.095C7.42187 50.5242 7.35572 51.1539 6.92653 51.5015C6.1495 52.1308 5.38759 52.7576 4.64125 53.3813C4.21745 53.7354 3.58681 53.6789 3.23267 53.2551C2.87853 52.8313 2.935 52.2007 3.3588 51.8466C4.11312 51.2162 4.88293 50.5829 5.66781 49.9473C6.097 49.5997 6.7267 49.6659 7.07428 50.095ZM242.717 51.3161C242.726 51.8683 242.285 52.3231 241.733 52.3318C239.634 52.3651 237.609 52.46 235.673 52.599C235.122 52.6386 234.643 52.2241 234.604 51.6732C234.564 51.1223 234.979 50.6437 235.529 50.6042C237.5 50.4627 239.562 50.366 241.702 50.3321C242.254 50.3233 242.708 50.7639 242.717 51.3161ZM246.824 51.371C246.848 50.8192 247.315 50.3914 247.866 50.4154C249.873 50.5028 251.93 50.6526 254.024 50.8773C254.573 50.9362 254.971 51.4292 254.912 51.9783C254.853 52.5274 254.36 52.9248 253.811 52.8659C251.76 52.6459 249.747 52.4992 247.779 52.4135C247.228 52.3895 246.8 51.9227 246.824 51.371ZM258.998 52.5547C259.094 52.0108 259.613 51.6475 260.156 51.7434C262.148 52.0942 264.164 52.5191 266.195 53.0281C266.731 53.1623 267.056 53.7054 266.922 54.2411C266.788 54.7769 266.245 55.1023 265.709 54.9681C263.726 54.4712 261.756 54.056 259.809 53.713C259.266 53.6172 258.902 53.0986 258.998 52.5547ZM219.02 54.6168C219.229 55.128 218.984 55.7119 218.473 55.9209C216.751 56.6251 215.029 57.4594 213.324 58.4088C212.841 58.6775 212.232 58.5043 211.964 58.0218C211.695 57.5393 211.868 56.9303 212.351 56.6616C214.12 55.676 215.915 54.8063 217.715 54.0698C218.227 53.8607 218.811 54.1056 219.02 54.6168ZM270.885 55.3913C271.059 54.8671 271.625 54.5831 272.149 54.757C274.073 55.3954 276.004 56.1158 277.934 56.9265C278.443 57.1404 278.683 57.7265 278.469 58.2357C278.255 58.7449 277.669 58.9844 277.16 58.7705C275.278 57.9804 273.396 57.2779 271.519 56.6553C270.995 56.4814 270.711 55.9155 270.885 55.3913ZM282.201 59.9794C282.454 59.4887 283.058 59.2964 283.548 59.5499C285.352 60.4816 287.149 61.4994 288.933 62.6101C289.402 62.9019 289.546 63.5186 289.254 63.9875C288.962 64.4564 288.345 64.5999 287.876 64.3081C286.138 63.2261 284.387 62.2345 282.63 61.3268C282.14 61.0733 281.947 60.47 282.201 59.9794ZM208.71 60.0667C209.027 60.5191 208.917 61.1427 208.465 61.4595C206.911 62.5477 205.39 63.7237 203.918 64.9743C203.498 65.332 202.866 65.2807 202.509 64.8599C202.151 64.4391 202.202 63.808 202.623 63.4503C204.141 62.1602 205.711 60.946 207.318 59.8212C207.77 59.5044 208.393 59.6143 208.71 60.0667ZM229.829 60.3946C230.343 60.1936 230.923 60.4476 231.124 60.962C231.893 62.9298 232.586 64.875 233.204 66.7939C233.373 67.3196 233.084 67.883 232.559 68.0523C232.033 68.2216 231.469 67.9327 231.3 67.407C230.695 65.5276 230.016 63.6207 229.261 61.69C229.06 61.1757 229.314 60.5957 229.829 60.3946ZM292.651 66.2932C292.979 65.8488 293.605 65.7544 294.049 66.0823C295.678 67.2841 297.291 68.571 298.884 69.9484C299.302 70.3096 299.348 70.9411 298.987 71.3589C298.626 71.7767 297.994 71.8226 297.576 71.4614C296.022 70.1178 294.449 68.863 292.862 67.6916C292.417 67.3637 292.323 66.7376 292.651 66.2932ZM199.698 67.4768C200.092 67.8636 200.098 68.4968 199.711 68.891C198.364 70.2635 197.082 71.6953 195.878 73.1735C195.53 73.6018 194.9 73.6663 194.471 73.3176C194.043 72.969 193.979 72.3391 194.327 71.9108C195.571 70.3837 196.895 68.9058 198.284 67.4902C198.671 67.096 199.304 67.09 199.698 67.4768ZM233.688 71.9952C234.224 71.8613 234.767 72.1871 234.901 72.7229C235.416 74.784 235.843 76.8083 236.184 78.7908C236.277 79.3351 235.912 79.8523 235.368 79.9459C234.824 80.0396 234.306 79.6743 234.213 79.13C233.88 77.1978 233.464 75.2221 232.961 73.2078C232.827 72.672 233.153 72.1291 233.688 71.9952ZM302.002 74.1705C302.394 73.7807 303.027 73.7818 303.417 74.173C304.843 75.6046 306.249 77.1168 307.631 78.7136C307.992 79.1313 307.946 79.7628 307.529 80.1242C307.111 80.4855 306.479 80.4399 306.118 80.0222C304.767 78.4606 303.393 76.9828 302 75.5848C301.61 75.1936 301.611 74.5604 302.002 74.1705ZM192.194 76.4126C192.655 76.7166 192.782 77.3369 192.478 77.798C191.41 79.418 190.445 81.0721 189.598 82.7455C189.349 83.2383 188.748 83.4358 188.255 83.1866C187.762 82.9374 187.564 82.3358 187.814 81.8429C188.697 80.0969 189.701 78.3767 190.808 76.697C191.112 76.236 191.733 76.1086 192.194 76.4126ZM310.109 83.317C310.55 82.984 311.177 83.0711 311.51 83.5116C312.723 85.1157 313.912 86.7931 315.077 88.5467C315.382 89.0068 315.257 89.6274 314.797 89.9329C314.336 90.2383 313.716 90.113 313.41 89.6528C312.268 87.9328 311.102 86.2888 309.915 84.7178C309.581 84.2772 309.669 83.6501 310.109 83.317ZM235.9 84.021C236.45 83.9733 236.935 84.3806 236.983 84.9308C237.167 87.0574 237.247 89.1248 237.227 91.1258C237.222 91.6781 236.77 92.1213 236.217 92.1158C235.665 92.1103 235.222 91.6581 235.227 91.1059C235.247 89.1719 235.169 87.1689 234.99 85.1037C234.942 84.5535 235.35 84.0687 235.9 84.021ZM186.748 86.7204C187.271 86.8997 187.549 87.4685 187.37 87.9909C186.741 89.8242 186.271 91.6594 185.979 93.4784C185.891 94.0237 185.378 94.3948 184.833 94.3072C184.288 94.2197 183.916 93.7066 184.004 93.1613C184.316 91.2192 184.815 89.2729 185.478 87.3417C185.657 86.8194 186.226 86.5412 186.748 86.7204ZM316.972 93.4253C317.449 93.1464 318.061 93.3067 318.34 93.7834C319.356 95.5195 320.348 97.3214 321.315 99.1916C321.569 99.6822 321.376 100.285 320.886 100.539C320.395 100.793 319.792 100.601 319.538 100.11C318.587 98.2702 317.612 96.4988 316.614 94.7934C316.335 94.3167 316.495 93.7042 316.972 93.4253ZM235.952 96.2276C236.5 96.2959 236.889 96.7956 236.82 97.3437C236.552 99.4905 236.156 101.539 235.635 103.476C235.492 104.009 234.944 104.326 234.41 104.182C233.877 104.039 233.561 103.491 233.704 102.957C234.199 101.115 234.579 99.1573 234.836 97.0961C234.904 96.5481 235.404 96.1592 235.952 96.2276ZM184.611 98.1388C185.163 98.1083 185.635 98.5306 185.665 99.0821C185.769 100.953 186.093 102.786 186.661 104.562C186.829 105.089 186.539 105.651 186.013 105.819C185.487 105.988 184.924 105.697 184.756 105.171C184.133 103.224 183.78 101.223 183.668 99.1925C183.638 98.6411 184.06 98.1693 184.611 98.1388ZM322.689 104.247C323.191 104.017 323.785 104.238 324.015 104.74C324.847 106.56 325.658 108.438 326.444 110.376C326.652 110.888 326.405 111.471 325.893 111.679C325.382 111.886 324.798 111.64 324.591 111.128C323.815 109.217 323.016 107.366 322.196 105.573C321.966 105.071 322.187 104.477 322.689 104.247ZM233.022 108.065C233.523 108.298 233.74 108.892 233.508 109.393C232.586 111.379 231.5 113.194 230.261 114.817C229.926 115.256 229.299 115.34 228.86 115.005C228.421 114.67 228.337 114.043 228.672 113.604C229.816 112.105 230.828 110.416 231.694 108.551C231.926 108.05 232.521 107.832 233.022 108.065ZM187.655 109.284C188.119 108.984 188.738 109.117 189.038 109.581C190 111.072 191.184 112.509 192.612 113.876C193.01 114.258 193.024 114.891 192.642 115.289C192.26 115.688 191.627 115.702 191.228 115.32C189.693 113.851 188.408 112.294 187.357 110.666C187.058 110.202 187.191 109.583 187.655 109.284ZM327.355 115.505C327.875 115.318 328.448 115.588 328.634 116.107C329.313 117.994 329.971 119.933 330.605 121.926C330.773 122.452 330.482 123.014 329.956 123.182C329.43 123.35 328.867 123.059 328.7 122.533C328.072 120.563 327.423 118.648 326.753 116.784C326.566 116.265 326.835 115.692 327.355 115.505ZM195.67 117.661C195.971 117.198 196.591 117.068 197.053 117.37C197.816 117.867 198.622 118.351 199.473 118.819C200.398 119.228 201.309 119.593 202.206 119.915C202.726 120.101 202.997 120.674 202.81 121.193C202.624 121.713 202.051 121.984 201.531 121.797C200.574 121.454 199.605 121.065 198.624 120.63C198.598 120.619 198.572 120.606 198.548 120.593C197.641 120.095 196.779 119.578 195.961 119.045C195.498 118.743 195.368 118.124 195.67 117.661ZM225.968 117.929C226.302 118.368 226.218 118.995 225.779 119.33C224.074 120.63 222.202 121.666 220.18 122.411C219.662 122.602 219.087 122.337 218.896 121.818C218.705 121.3 218.97 120.725 219.488 120.534C221.32 119.859 223.016 118.921 224.566 117.74C225.005 117.405 225.633 117.489 225.968 117.929ZM206.791 122.254C206.882 121.709 207.397 121.34 207.941 121.43C209.996 121.771 211.955 121.865 213.809 121.735C214.36 121.696 214.838 122.112 214.876 122.663C214.915 123.213 214.5 123.691 213.949 123.73C211.928 123.872 209.813 123.767 207.615 123.403C207.07 123.313 206.701 122.798 206.791 122.254ZM331.141 127.137C331.673 126.987 332.225 127.297 332.375 127.829C332.922 129.771 333.448 131.761 333.954 133.798C334.086 134.334 333.76 134.877 333.224 135.01C332.688 135.143 332.145 134.816 332.012 134.28C331.512 132.262 330.991 130.293 330.45 128.371C330.3 127.839 330.609 127.287 331.141 127.137ZM334.146 138.974C334.685 138.857 335.218 139.199 335.336 139.738C335.555 140.747 335.77 141.766 335.98 142.797C336.09 143.338 335.741 143.866 335.199 143.976C334.658 144.086 334.13 143.737 334.02 143.196C333.812 142.174 333.599 141.163 333.382 140.164C333.264 139.624 333.606 139.092 334.146 138.974Z" fill="black"/>
<path d="M5 53.4961C5 54.8768 3.88071 55.9961 2.5 55.9961C1.11929 55.9961 0 54.8768 0 53.4961C0 52.1154 1.11929 50.9961 2.5 50.9961C3.88071 50.9961 5 52.1154 5 53.4961Z" fill="black"/>
</svg>
