<svg width="27" height="24" viewBox="0 0 27 24" fill="none" xmlns="http://www.w3.org/2000/svg">
<path d="M3.13561 17.4272C3.92061 12.7472 4.70659 8.06715 5.49159 3.38715C5.60259 2.72715 5.71259 2.06816 5.82359 1.40816C6.08459 -0.146843 3.67761 -0.583847 3.41661 0.970153C2.63161 5.65015 1.84559 10.3302 1.06059 15.0102C0.949593 15.6702 0.839592 16.3292 0.728592 16.9892C0.468592 18.5432 2.87561 18.9812 3.13561 17.4272Z" fill="black"/>
<path d="M7.47165 18.919C9.89165 16.517 12.3126 14.115 14.7326 11.714C15.0746 11.375 15.4166 11.035 15.7586 10.696C16.2276 10.231 16.0717 9.36597 15.5987 8.97397C15.0497 8.51897 14.3466 8.66696 13.8766 9.13396C11.4566 11.536 9.03567 13.938 6.61567 16.339C6.27367 16.678 5.93166 17.018 5.58966 17.357C5.12066 17.822 5.27664 18.687 5.74964 19.079C6.29864 19.534 7.00165 19.386 7.47165 18.919Z" fill="black"/>
<path d="M9.15841 23.6813C13.9604 23.2903 18.7624 22.9003 23.5654 22.5093C24.2524 22.4533 24.9384 22.3973 25.6254 22.3413C27.1964 22.2133 26.9994 19.7753 25.4294 19.9023C20.6274 20.2933 15.8254 20.6833 11.0224 21.0743C10.3354 21.1303 9.6494 21.1863 8.9624 21.2423C7.3914 21.3703 7.58841 23.8093 9.15841 23.6813Z" fill="black"/>
</svg>
