<svg width="23" height="35" viewBox="0 0 23 35" fill="none" xmlns="http://www.w3.org/2000/svg">
<path d="M14.2399 21.2048C14.8869 24.7278 15.5309 28.2508 16.1739 31.7738C16.8179 32.0158 17.4619 32.2578 18.1059 32.4998C16.9209 28.1118 15.4579 23.3488 11.9449 20.2258C8.76889 17.4018 4.3069 16.9128 0.355897 18.2258C0.848897 19.3638 1.34089 20.5018 1.83389 21.6408C4.98789 20.0258 8.5309 17.1768 8.7169 13.3768C8.9139 9.3648 7.05989 4.9848 5.35089 1.4278C5.14489 0.998801 4.5329 -0.245198 3.8669 0.0428019C3.2099 0.326802 3.69989 1.6738 3.86089 2.0728C5.79689 6.8948 8.3449 12.3048 13.3269 14.6318C15.9259 15.8458 19.1499 15.3128 21.8619 14.7088C21.3689 13.5708 20.8769 12.4328 20.3839 11.2938C16.3449 12.9508 13.5169 16.7468 14.2399 21.2048C14.3559 21.9218 14.7799 23.1168 15.5189 23.4248C16.2599 23.7338 16.3659 22.9408 16.2739 22.3708C15.7049 18.8628 18.8719 15.9348 21.8619 14.7068C22.9189 14.2728 21.5129 11.0408 20.3839 11.2918C18.2289 11.7728 15.5819 12.2668 13.4269 11.6098C9.0019 10.2598 6.9119 5.3118 5.3519 1.4258C4.8549 1.6408 4.35789 1.8558 3.86089 2.0708C4.40189 3.1968 4.8829 4.3578 5.3149 5.5288C5.9809 7.3348 6.7699 9.4568 6.6179 11.4158C6.3789 14.4948 2.8759 16.9338 0.355897 18.2238C-0.668103 18.7478 0.733894 22.0038 1.83389 21.6388C4.99289 20.5888 8.88689 20.6578 11.5969 22.8088C14.4459 25.0688 15.3719 28.8668 16.2759 32.2128C16.4259 32.7688 16.9179 33.9128 17.5789 34.0398C18.2339 34.1668 18.3049 33.4708 18.2069 32.9388C17.5639 29.4158 16.9199 25.8928 16.2729 22.3698C16.1409 21.6498 15.7429 20.4618 14.9939 20.1498C14.2629 19.8458 14.1349 20.6318 14.2399 21.2048Z" fill="black"/>
</svg>
