<svg width="21" height="32" viewBox="0 0 21 32" fill="none" xmlns="http://www.w3.org/2000/svg">
<path d="M8.72984 21.193C6.26084 23.787 3.78883 26.379 1.31583 28.97C1.49883 29.633 1.68084 30.296 1.86384 30.959C4.71684 27.421 7.70984 23.438 8.17184 18.76C8.58984 14.531 6.36284 10.633 2.97784 8.20897C2.34684 9.27697 1.71584 10.344 1.08384 11.412C4.24384 13.015 8.63183 14.206 11.8158 12.123C15.1768 9.92397 17.6308 5.84897 19.5048 2.37597C19.7308 1.95697 20.3778 0.730974 19.7528 0.360974C19.1368 -0.0030256 18.3358 1.18497 18.1068 1.54897C15.3438 5.94997 12.4648 11.191 13.5108 16.589C14.0568 19.405 16.3828 21.701 18.4658 23.539C19.0968 22.471 19.7278 21.404 20.3598 20.336C16.6438 18.043 11.9118 17.987 8.72984 21.193C8.21784 21.709 7.50084 22.754 7.68484 23.532C7.86984 24.313 8.57384 23.933 8.98084 23.523C11.4848 21.001 15.7158 21.842 18.4658 23.539C19.4388 24.139 21.2268 21.102 20.3598 20.336C18.7048 18.875 16.7488 17.025 16.0138 14.894C14.5048 10.521 17.2798 5.92197 19.5058 2.37497C19.0398 2.09897 18.5738 1.82397 18.1078 1.54797C17.5148 2.64697 16.8588 3.71997 16.1648 4.75697C15.0958 6.35697 13.8418 8.24297 12.1678 9.27197C9.53684 10.889 5.50384 9.48797 2.97884 8.20797C1.95284 7.68797 0.142846 10.735 1.08485 11.411C3.79085 13.349 6.02384 16.54 5.87684 19.997C5.72284 23.63 3.19484 26.612 1.01884 29.31C0.656837 29.759 0.0218463 30.829 0.306846 31.439C0.589846 32.043 1.19284 31.692 1.56684 31.3C4.03884 28.709 6.51084 26.117 8.98084 23.523C9.48584 22.993 10.2128 21.973 10.0258 21.184C9.84284 20.412 9.13184 20.771 8.72984 21.193Z" fill="black"/>
</svg>
