<svg width="72" height="75" viewBox="0 0 72 75" fill="none" xmlns="http://www.w3.org/2000/svg">
<path d="M71.0948 43.783C59.7578 39.913 47.7738 37.501 35.7578 37.026C33.9108 22.031 24.8898 9.502 13.5478 0V4.931C22.4008 12.376 30.3128 21.842 33.5758 33.115C33.9468 34.398 34.2378 35.692 34.4708 36.991C32.1138 36.925 29.7558 36.926 27.4028 37.014C20.8518 37.259 14.1118 38.41 8.64381 42.251C3.73881 45.696 0.972803 50.898 0.810803 56.878C0.654803 62.656 2.39382 68.982 7.46882 72.322C12.3558 75.538 18.9518 75.392 23.8938 72.369C29.0228 69.233 32.1618 63.793 33.9898 58.204C35.6948 52.99 36.3278 47.464 36.1408 41.982C48.0678 42.469 59.9918 44.912 71.2158 48.743C71.4718 48.83 72.2498 44.177 71.0948 43.783ZM34.1648 50.997C32.9218 56.342 30.4688 61.715 26.3508 65.455C22.3078 69.127 16.5668 70.675 11.2628 69.16C6.5928 67.826 2.3738 63.585 1.9178 58.578C1.7238 56.442 2.7318 54.186 3.8368 52.42C5.2388 50.178 7.17282 48.292 9.35682 46.814C14.3978 43.404 20.6428 42.316 26.6108 42.014C29.4068 41.872 32.2128 41.849 35.0208 41.935C35.1368 44.955 34.8638 47.989 34.1648 50.997Z" fill="black"/>
</svg>
