<svg width="366" height="319" viewBox="0 0 366 319" fill="none" xmlns="http://www.w3.org/2000/svg">
<path d="M362.126 193.283C362.228 192.912 361.889 192.57 361.517 192.668L354.235 194.587C353.863 194.685 353.737 195.149 354.008 195.423L359.31 200.769C359.581 201.042 360.047 200.92 360.148 200.548L362.126 193.283Z" fill="black"/>
<path fill-rule="evenodd" clip-rule="evenodd" d="M109.017 198.666C108.705 199.122 108.822 199.744 109.277 200.056C110.95 201.201 112.648 202.307 114.371 203.37C114.841 203.66 115.457 203.514 115.747 203.044C116.037 202.574 115.891 201.958 115.421 201.668C113.725 200.622 112.054 199.534 110.407 198.406C109.952 198.094 109.329 198.211 109.017 198.666ZM105.747 196.315C106.079 195.874 105.991 195.247 105.549 194.915C103.958 193.716 102.391 192.481 100.848 191.212C100.422 190.861 99.7914 190.922 99.4405 191.349C99.0896 191.775 99.1509 192.405 99.5774 192.756C101.142 194.043 102.731 195.296 104.346 196.512C104.787 196.845 105.414 196.756 105.747 196.315ZM119.227 205.074C118.96 205.558 119.137 206.166 119.621 206.432C121.395 207.409 123.196 208.34 125.021 209.224C125.519 209.464 126.117 209.256 126.357 208.759C126.598 208.262 126.39 207.664 125.893 207.423C124.099 206.555 122.33 205.64 120.585 204.68C120.101 204.414 119.493 204.59 119.227 205.074ZM96.382 188.725C96.7499 188.313 96.7142 187.681 96.3022 187.313C94.8142 185.984 93.3506 184.624 91.9115 183.236C91.514 182.852 90.881 182.864 90.4975 183.261C90.1141 183.659 90.1254 184.292 90.5229 184.675C91.98 186.081 93.4623 187.458 94.97 188.805C95.3819 189.173 96.0141 189.137 96.382 188.725ZM130.032 210.417C129.818 210.927 130.058 211.513 130.568 211.726C132.433 212.507 134.324 213.239 136.24 213.918C136.761 214.102 137.332 213.83 137.517 213.309C137.701 212.788 137.429 212.217 136.908 212.032C135.028 211.366 133.172 210.648 131.34 209.881C130.831 209.668 130.245 209.908 130.032 210.417ZM87.6502 180.411C88.0478 180.028 88.0595 179.395 87.6762 178.997C86.2904 177.559 84.929 176.096 83.5921 174.61C83.2228 174.199 82.5905 174.165 82.1799 174.535C81.7692 174.904 81.7357 175.536 82.105 175.947C83.4569 177.45 84.834 178.93 86.2362 180.385C86.6195 180.783 87.2525 180.795 87.6502 180.411ZM79.5349 171.494C79.9574 171.138 80.0116 170.507 79.6559 170.085C78.368 168.555 77.1047 167.005 75.8659 165.436C75.5236 165.003 74.8947 164.929 74.4613 165.271C74.0279 165.614 73.9541 166.243 74.2965 166.676C75.5478 168.26 76.8243 169.827 78.1259 171.373C78.4815 171.795 79.1124 171.85 79.5349 171.494ZM141.346 214.544C141.192 215.075 141.497 215.63 142.027 215.784C143.966 216.348 145.929 216.859 147.917 217.313C148.455 217.436 148.992 217.1 149.115 216.561C149.238 216.023 148.901 215.487 148.363 215.363C146.413 214.918 144.488 214.417 142.586 213.863C142.056 213.709 141.501 214.014 141.346 214.544ZM72.0118 162.073C72.4551 161.743 72.5476 161.117 72.2183 160.674C71.0233 159.065 69.8532 157.44 68.7081 155.803C68.3915 155.351 67.7681 155.24 67.3155 155.557C66.8629 155.874 66.7527 156.497 67.0693 156.95C68.225 158.602 69.4062 160.242 70.6127 161.866C70.942 162.309 71.5684 162.402 72.0118 162.073ZM153.077 217.345C152.986 217.89 153.354 218.405 153.898 218.496C155.882 218.828 157.889 219.104 159.919 219.322C160.468 219.381 160.961 218.984 161.02 218.435C161.079 217.885 160.681 217.392 160.132 217.333C158.142 217.12 156.174 216.849 154.228 216.524C153.684 216.433 153.168 216.8 153.077 217.345ZM65.0506 152.222C65.5117 151.918 65.6389 151.298 65.3348 150.837C64.2301 149.162 63.1509 147.477 62.0972 145.784C61.8053 145.315 61.1886 145.172 60.7198 145.464C60.2509 145.756 60.1074 146.372 60.3993 146.841C61.4621 148.549 62.5507 150.248 63.6653 151.938C63.9694 152.399 64.5896 152.526 65.0506 152.222ZM165.025 218.747C164.998 219.298 165.423 219.767 165.975 219.794C167.984 219.892 170.014 219.934 172.066 219.916C172.618 219.911 173.062 219.46 173.057 218.908C173.052 218.355 172.601 217.911 172.049 217.916C170.035 217.933 168.043 217.893 166.072 217.797C165.521 217.77 165.052 218.195 165.025 218.747ZM58.6366 142.02C59.1128 141.74 59.2719 141.127 58.992 140.651C57.9716 138.915 56.9777 137.174 56.0103 135.431C55.7424 134.948 55.1337 134.773 54.6507 135.041C54.1678 135.309 53.9936 135.918 54.2615 136.401C55.2368 138.159 56.2389 139.914 57.2678 141.665C57.5477 142.141 58.1605 142.3 58.6366 142.02ZM177.094 218.76C177.13 219.311 177.605 219.729 178.156 219.693C180.147 219.565 182.157 219.382 184.185 219.142C184.734 219.077 185.126 218.58 185.061 218.031C184.996 217.483 184.499 217.091 183.95 217.156C181.957 217.392 179.983 217.572 178.028 217.698C177.477 217.733 177.059 218.209 177.094 218.76ZM52.7364 131.49C53.2256 131.234 53.4146 130.63 53.1584 130.14C52.2231 128.354 51.3157 126.569 50.4363 124.787C50.1918 124.292 49.5922 124.089 49.0969 124.333C48.6017 124.578 48.3984 125.177 48.6429 125.673C49.5293 127.468 50.4439 129.268 51.3866 131.068C51.6428 131.557 52.2471 131.746 52.7364 131.49ZM47.3591 120.706C47.8599 120.473 48.0773 119.878 47.8446 119.377C46.9938 117.546 46.1728 115.722 45.3819 113.909C45.161 113.403 44.5717 113.172 44.0654 113.393C43.5592 113.613 43.3279 114.203 43.5487 114.709C44.3459 116.536 45.1733 118.374 46.0308 120.22C46.2635 120.721 46.8582 120.938 47.3591 120.706ZM189.055 217.453C189.148 217.997 189.665 218.363 190.209 218.27C192.185 217.932 194.178 217.54 196.188 217.094C196.727 216.974 197.067 216.44 196.947 215.901C196.827 215.361 196.293 215.022 195.754 215.141C193.775 215.581 191.815 215.966 189.872 216.298C189.327 216.392 188.962 216.908 189.055 217.453ZM42.4937 109.669C43.005 109.461 43.2504 108.877 43.0417 108.366C42.2736 106.484 41.5388 104.617 40.8373 102.771C40.6412 102.254 40.0636 101.995 39.5473 102.191C39.0311 102.387 38.7715 102.965 38.9676 103.481C39.6749 105.343 40.4157 107.224 41.19 109.121C41.3986 109.633 41.9823 109.878 42.4937 109.669ZM200.824 214.943C200.969 215.476 201.518 215.791 202.051 215.646C203.987 215.121 205.938 214.545 207.905 213.916C208.431 213.748 208.721 213.185 208.553 212.659C208.385 212.133 207.822 211.843 207.296 212.011C205.357 212.631 203.434 213.199 201.527 213.716C200.994 213.861 200.679 214.41 200.824 214.943ZM38.1617 98.4011C38.6828 98.2182 38.9568 97.6474 38.7738 97.1263C38.0973 95.1997 37.4589 93.3006 36.8589 91.4336C36.6899 90.9078 36.1266 90.6185 35.6008 90.7875C35.075 90.9565 34.7858 91.5198 34.9548 92.0456C35.5604 93.9297 36.2044 95.8458 36.8868 97.789C37.0698 98.3101 37.6406 98.5841 38.1617 98.4011ZM212.339 211.362C212.528 211.88 213.102 212.147 213.621 211.957C214.276 211.718 214.932 211.473 215.59 211.222C216.212 211.804 216.861 212.401 217.538 213.009C217.949 213.378 218.581 213.344 218.95 212.933C219.319 212.522 219.285 211.89 218.874 211.521C218.417 211.11 217.972 210.704 217.539 210.304C218.14 209.962 218.734 209.618 219.321 209.271C219.796 208.99 219.954 208.376 219.672 207.901C219.391 207.426 218.778 207.268 218.302 207.55C217.555 207.992 216.795 208.43 216.023 208.863C215.569 208.409 215.124 207.934 214.688 207.441C214.322 207.027 213.69 206.988 213.276 207.354C212.862 207.719 212.823 208.351 213.189 208.765C213.463 209.075 213.741 209.379 214.023 209.676C213.66 209.812 213.297 209.946 212.934 210.079C212.416 210.269 212.149 210.843 212.339 211.362ZM34.4213 86.9316C34.9517 86.7779 35.2571 86.2233 35.1034 85.6928C34.8251 84.7324 34.5577 83.7827 34.3013 82.8445C34.1558 82.3118 33.6059 81.9979 33.0731 82.1435C32.5404 82.289 32.2265 82.8389 32.3721 83.3717C32.6312 84.3199 32.9013 85.2795 33.1824 86.2495C33.3362 86.78 33.8908 87.0854 34.4213 86.9316ZM228.536 220.531C228.858 220.082 228.757 219.457 228.308 219.135C226.604 217.908 224.996 216.673 223.486 215.454C223.057 215.106 222.427 215.173 222.08 215.603C221.733 216.032 221.8 216.662 222.229 217.009C223.766 218.251 225.403 219.508 227.14 220.758C227.588 221.081 228.213 220.979 228.536 220.531ZM231.938 222.831C231.642 223.298 231.781 223.916 232.248 224.211C233.945 225.286 235.718 226.337 237.566 227.349C238.05 227.615 238.658 227.437 238.923 226.953C239.189 226.468 239.011 225.86 238.527 225.595C236.718 224.605 234.981 223.575 233.318 222.521C232.851 222.226 232.233 222.365 231.938 222.831ZM242.607 228.814C242.375 229.315 242.593 229.909 243.094 230.141C244.929 230.991 246.826 231.793 248.784 232.536C249.301 232.732 249.878 232.472 250.074 231.956C250.27 231.439 250.01 230.862 249.494 230.666C247.582 229.941 245.728 229.157 243.934 228.326C243.433 228.094 242.839 228.312 242.607 228.814ZM210.97 204.285C211.434 203.985 211.566 203.366 211.266 202.902C210.255 201.341 209.318 199.672 208.461 197.919C208.218 197.423 207.62 197.217 207.123 197.46C206.627 197.702 206.422 198.301 206.664 198.797C207.554 200.617 208.53 202.356 209.587 203.989C209.887 204.453 210.506 204.585 210.97 204.285ZM253.984 233.275C253.827 233.805 254.129 234.361 254.659 234.518C256.603 235.093 258.599 235.604 260.647 236.042C261.187 236.157 261.718 235.813 261.834 235.273C261.949 234.732 261.605 234.201 261.064 234.086C259.069 233.66 257.122 233.161 255.226 232.6C254.697 232.443 254.14 232.745 253.984 233.275ZM265.893 235.973C265.821 236.521 266.206 237.023 266.753 237.095C268.766 237.361 270.822 237.551 272.921 237.659C273.473 237.688 273.943 237.263 273.971 236.712C274 236.16 273.575 235.69 273.024 235.662C270.979 235.557 268.975 235.371 267.015 235.112C266.467 235.04 265.965 235.426 265.893 235.973ZM205.621 193.923C206.14 193.732 206.405 193.158 206.215 192.639C205.561 190.859 204.985 189.025 204.491 187.158C204.35 186.624 203.803 186.305 203.269 186.446C202.735 186.587 202.416 187.135 202.558 187.669C203.067 189.595 203.662 191.488 204.338 193.329C204.528 193.847 205.103 194.113 205.621 193.923ZM223.143 205.717C223.45 206.176 224.071 206.298 224.53 205.991C226.285 204.815 227.965 203.614 229.568 202.392C230.007 202.057 230.092 201.43 229.757 200.991C229.423 200.551 228.795 200.467 228.356 200.801C226.785 201.998 225.139 203.176 223.417 204.329C222.958 204.637 222.835 205.258 223.143 205.717ZM278.076 236.76C278.092 237.312 278.552 237.747 279.104 237.731C281.127 237.675 283.186 237.541 285.281 237.32C285.83 237.262 286.229 236.77 286.171 236.221C286.113 235.672 285.621 235.273 285.072 235.331C283.028 235.546 281.02 235.678 279.048 235.732C278.496 235.748 278.061 236.207 278.076 236.76ZM202.456 182.693C203.001 182.6 203.367 182.084 203.275 181.54C202.954 179.644 202.719 177.736 202.575 175.835C202.534 175.284 202.054 174.872 201.503 174.913C200.952 174.955 200.539 175.435 200.581 175.986C200.729 177.949 200.972 179.919 201.303 181.874C201.396 182.418 201.912 182.785 202.456 182.693ZM232.937 198.4C233.3 198.816 233.932 198.858 234.348 198.495C235.948 197.097 237.454 195.68 238.867 194.247C239.255 193.854 239.25 193.221 238.857 192.833C238.464 192.445 237.831 192.45 237.443 192.843C236.066 194.239 234.596 195.623 233.032 196.989C232.616 197.352 232.574 197.984 232.937 198.4ZM290.252 235.636C290.35 236.179 290.871 236.54 291.414 236.441C293.403 236.081 295.421 235.643 297.467 235.121C298.002 234.985 298.325 234.441 298.189 233.905C298.052 233.37 297.508 233.047 296.973 233.183C294.972 233.693 293 234.122 291.058 234.473C290.514 234.572 290.154 235.092 290.252 235.636ZM201.401 171.072C201.953 171.085 202.412 170.649 202.426 170.097C202.474 168.157 202.627 166.248 202.888 164.391C202.965 163.844 202.584 163.339 202.037 163.262C201.49 163.185 200.985 163.566 200.908 164.113C200.635 166.05 200.477 168.036 200.426 170.047C200.413 170.599 200.849 171.058 201.401 171.072ZM302.131 232.759C302.302 233.284 302.866 233.57 303.391 233.399C305.303 232.775 307.238 232.078 309.195 231.304C309.709 231.1 309.96 230.519 309.757 230.006C309.554 229.492 308.973 229.241 308.459 229.444C306.54 230.204 304.643 230.887 302.771 231.498C302.246 231.669 301.959 232.234 302.131 232.759ZM241.621 189.792C242.046 190.146 242.676 190.088 243.03 189.664C244.396 188.024 245.643 186.372 246.769 184.719C247.08 184.262 246.962 183.64 246.506 183.329C246.049 183.018 245.427 183.136 245.116 183.593C244.027 185.191 242.82 186.791 241.493 188.384C241.14 188.808 241.197 189.439 241.621 189.792ZM202.82 159.501C203.351 159.652 203.904 159.344 204.055 158.813C204.586 156.949 205.249 155.174 206.048 153.514C206.288 153.016 206.078 152.419 205.581 152.179C205.083 151.94 204.486 152.149 204.246 152.646C203.393 154.419 202.691 156.301 202.132 158.265C201.98 158.796 202.288 159.349 202.82 159.501ZM313.538 228.382C313.77 228.883 314.364 229.101 314.865 228.87C316.691 228.025 318.534 227.112 320.396 226.13C320.884 225.872 321.071 225.267 320.814 224.779C320.556 224.29 319.951 224.103 319.462 224.361C317.631 225.328 315.818 226.225 314.025 227.055C313.524 227.286 313.306 227.881 313.538 228.382ZM248.636 179.802C249.125 180.059 249.73 179.871 249.987 179.382C250.993 177.467 251.837 175.56 252.517 173.672C252.704 173.153 252.435 172.58 251.915 172.393C251.396 172.205 250.823 172.475 250.635 172.995C249.989 174.79 249.183 176.613 248.216 178.452C247.959 178.941 248.148 179.545 248.636 179.802ZM207.588 148.908C208.023 149.248 208.651 149.17 208.991 148.735C210.145 147.259 211.458 145.939 212.939 144.806C213.377 144.47 213.461 143.842 213.125 143.404C212.789 142.965 212.162 142.882 211.723 143.218C210.1 144.46 208.667 145.902 207.415 147.504C207.075 147.939 207.152 148.568 207.588 148.908ZM324.412 222.765C324.693 223.24 325.306 223.398 325.782 223.117C327.505 222.099 329.242 221.02 330.995 219.879C331.458 219.578 331.588 218.958 331.287 218.495C330.985 218.033 330.366 217.902 329.903 218.203C328.175 219.329 326.462 220.392 324.764 221.395C324.289 221.676 324.131 222.289 324.412 222.765ZM252.993 168.412C253.537 168.508 254.055 168.144 254.151 167.6C254.528 165.443 254.674 163.333 254.584 161.293C254.56 160.742 254.093 160.314 253.541 160.338C252.989 160.363 252.562 160.83 252.586 161.382C252.669 163.266 252.535 165.23 252.181 167.255C252.085 167.799 252.449 168.317 252.993 168.412ZM216.452 141.499C216.662 142.01 217.246 142.254 217.757 142.044C219.398 141.37 221.191 140.867 223.143 140.561C223.689 140.475 224.062 139.963 223.976 139.418C223.89 138.872 223.379 138.499 222.833 138.585C220.734 138.914 218.79 139.458 216.997 140.194C216.486 140.404 216.242 140.988 216.452 141.499ZM334.672 216.19C334.992 216.64 335.616 216.746 336.066 216.426C337.701 215.265 339.349 214.049 341.008 212.776C341.446 212.44 341.528 211.812 341.192 211.374C340.856 210.936 340.228 210.853 339.79 211.189C338.15 212.447 336.523 213.649 334.908 214.796C334.458 215.115 334.352 215.74 334.672 216.19ZM227.816 139.2C227.799 139.752 228.233 140.213 228.785 140.23C229.695 140.257 230.633 140.321 231.599 140.422C232.592 140.615 233.548 140.836 234.468 141.084C235.001 141.228 235.55 140.913 235.694 140.38C235.838 139.846 235.523 139.297 234.99 139.153C234.008 138.888 232.99 138.654 231.936 138.45C231.909 138.445 231.881 138.441 231.853 138.438C230.823 138.329 229.821 138.26 228.845 138.231C228.293 138.214 227.832 138.648 227.816 139.2ZM252.837 156.287C253.363 156.118 253.652 155.554 253.483 155.029C252.825 152.988 251.881 151.069 250.647 149.302C250.331 148.849 249.708 148.739 249.255 149.055C248.802 149.371 248.691 149.995 249.007 150.447C250.125 152.047 250.982 153.787 251.579 155.642C251.748 156.167 252.311 156.456 252.837 156.287ZM239.568 141.784C239.331 142.282 239.543 142.879 240.041 143.116C241.922 144.011 243.584 145.052 245.031 146.218C245.462 146.564 246.091 146.496 246.438 146.066C246.784 145.636 246.716 145.006 246.286 144.66C244.709 143.389 242.912 142.267 240.9 141.31C240.402 141.073 239.805 141.285 239.568 141.784ZM344.424 208.805C344.775 209.231 345.405 209.292 345.832 208.942C347.39 207.659 348.959 206.327 350.538 204.943C350.953 204.579 350.994 203.948 350.63 203.532C350.266 203.117 349.635 203.075 349.219 203.439C347.656 204.81 346.103 206.128 344.561 207.397C344.135 207.748 344.073 208.378 344.424 208.805ZM353.652 200.805C354.027 201.21 354.66 201.233 355.065 200.857C355.821 200.155 356.58 199.441 357.341 198.715C357.74 198.334 357.755 197.701 357.374 197.301C356.992 196.902 356.36 196.887 355.96 197.268C355.206 197.988 354.454 198.696 353.704 199.392C353.299 199.768 353.276 200.4 353.652 200.805Z" fill="black"/>
<path d="M34.6614 82.9564C35.4501 81.8231 35.1707 80.265 34.0374 79.4763C32.9042 78.6877 31.3461 78.967 30.5574 80.1003C29.7687 81.2336 30.0481 82.7917 31.1814 83.5804C32.3147 84.369 33.8728 84.0897 34.6614 82.9564Z" fill="black"/>
</svg>
